<svg xmlns="http://www.w3.org/2000/svg" width="21.432" height="15.21" viewBox="0 0 21.432 15.21">
  <g id="download_9_" data-name="download (9)" transform="translate(-221.481 -268.839)">
    <path id="Path_120" data-name="Path 120" d="M208.617,197.571a.622.622,0,0,1,0,1.108l-1.945,1-2.128,1.092h0a.622.622,0,0,1-.905-.551v-4.194a.622.622,0,0,1,.905-.554l2.128,1.1Z" transform="translate(26.381 78.32)" fill="none" stroke="#000" stroke-linecap="round" stroke-linejoin="round" stroke-width="1.21"/>
    <path id="Path_121" data-name="Path 121" d="M86.3,130.234H99.676a3.676,3.676,0,0,1,3.422,3.422v7.155a3.422,3.422,0,0,1-3.422,3.422H86.3a3.676,3.676,0,0,1-3.422-3.422v-7.155A3.422,3.422,0,0,1,86.3,130.234Z" transform="translate(139.21 139.21)" fill="none" stroke="#000" stroke-linecap="round" stroke-linejoin="round" stroke-width="1.21"/>
  </g>
</svg>
